# Blender 4.3.2
# www.blender.org
mtllib shield.mtl
o Shield_2.001
v 0.352280 -0.551434 0.011216
v 0.352280 0.551434 0.011216
v 0.739081 -0.551434 -0.022625
v 0.739081 0.551434 -0.022625
v -0.975719 0.032223 -0.005517
v 0.942362 0.032223 -0.005516
v -0.975719 -0.258190 -0.005517
v 0.942362 -0.258190 -0.005516
v -0.147294 -1.557152 0.098144
v -0.147294 1.193947 0.098144
v 0.143118 -1.557152 0.098144
v 0.143118 1.193947 0.098144
v -0.561507 0.032313 0.046314
v -0.561507 -0.258639 0.046314
v 0.542683 0.032268 0.046427
v 0.542683 -0.258414 0.046427
v -0.768258 -0.551434 -0.028857
v -0.768258 0.551433 -0.028857
v -0.381457 -0.551434 0.004984
v -0.381457 0.551433 0.004984
v -0.934845 -0.671283 0.003856
v -0.934845 1.067614 0.003856
v -0.538823 1.129580 0.082925
v -0.538823 -1.179618 0.082925
v 0.930669 -0.671283 0.003856
v 0.930669 1.067614 0.003856
v -0.002088 -1.517612 0.105135
v -0.002088 1.155120 0.105135
v 0.534647 1.129580 0.082925
v 0.534647 -1.179618 0.082925
v -1.059431 -0.749127 -0.106015
v -1.059431 1.181966 -0.106015
v -0.610514 -1.313647 -0.018208
v -0.610514 1.250781 -0.018208
v -0.002088 1.279144 0.006458
v -0.002088 -1.688997 0.006458
v 1.055255 -0.749127 -0.106015
v 1.055255 1.181966 -0.106015
v 0.606338 -1.313647 -0.018208
v 0.606338 1.250781 -0.018208
v 0.606338 -1.313647 0.178306
v 0.534647 -1.179618 0.166975
v -0.934845 -0.671283 0.087906
v -0.934845 1.067614 0.087906
v -0.002088 -1.517612 0.189185
v -0.002088 -1.688997 0.202971
v -0.538823 1.129580 0.166975
v -0.538823 -1.179618 0.166975
v -0.002088 1.155120 0.189185
v 0.930669 -0.671283 0.087906
v 0.930669 1.067614 0.087906
v 0.534647 1.129580 0.166975
v 0.606338 1.250781 0.178306
v 1.055255 1.181966 0.090498
v -1.059431 -0.749127 0.090498
v -1.059431 1.181966 0.090498
v -0.610514 1.250781 0.178306
v -0.610514 -1.313647 0.178306
v -0.002088 1.279144 0.202971
v 1.055255 -0.749127 0.090498
vn 0.0405 -0.0000 -0.9992
vn -0.1958 -0.0000 0.9806
vn -0.1920 -0.0000 -0.9814
vn -1.0000 -0.0000 -0.0000
vn 0.0475 -0.9989 -0.0000
vn -0.0413 -0.0000 0.9991
vn 0.1920 -0.0000 -0.9814
vn 0.1958 -0.0000 0.9806
vn -0.0405 -0.0000 -0.9992
vn 0.0413 -0.0000 0.9991
vn -0.1515 0.9885 -0.0000
vn -0.5250 -0.8511 -0.0000
vn -0.0466 0.9989 -0.0000
vn 1.0000 -0.0000 -0.0000
vn -0.7827 -0.6224 -0.0000
vn 0.1515 0.9885 -0.0000
vn 0.5250 -0.8511 -0.0000
vn 0.0466 0.9989 -0.0000
vn 0.7827 -0.6224 -0.0000
vn 0.1546 -0.9880 -0.0000
vn -0.5329 0.8462 -0.0000
vn -0.1546 -0.9880 -0.0000
vn -0.0356 -0.1112 0.9932
vn -0.0353 -0.1123 0.9930
vn -0.0350 -0.1135 0.9929
vn -0.1629 -0.1895 0.9683
vn -0.1604 -0.1937 0.9679
vn -0.1593 -0.1955 0.9677
vn -0.0090 0.0801 0.9967
vn -0.0090 0.0799 0.9968
vn -0.0088 0.0795 0.9968
vn 0.1629 -0.1895 0.9683
vn 0.1604 -0.1937 0.9679
vn 0.1640 -0.1876 0.9685
vn -0.0208 -0.0000 0.9998
vn 0.0355 -0.1117 0.9931
vn 0.0352 -0.1126 0.9930
vn 0.0358 -0.1104 0.9932
vn 0.0090 0.0801 0.9967
vn 0.0090 0.0799 0.9968
vn 0.0091 0.0802 0.9967
vn -0.0515 0.1140 0.9921
vn -0.0523 0.1130 0.9922
vn -0.0530 0.1122 0.9923
vn 0.0208 -0.0000 0.9998
vn 0.0516 0.1139 0.9922
vn 0.0523 0.1130 0.9922
vn 0.0510 0.1146 0.9921
vn -0.0475 -0.9989 -0.0000
vn 0.5329 0.8462 -0.0000
vn 0.7889 0.6146 -0.0000
vn -0.7889 0.6146 -0.0000
vn -0.0358 -0.1104 0.9932
vn -0.1640 -0.1876 0.9685
vn -0.0091 0.0802 0.9967
vn 0.1593 -0.1955 0.9677
vn 0.0350 -0.1135 0.9929
vn 0.0088 0.0795 0.9968
vn -0.0510 0.1146 0.9921
vn 0.0530 0.1122 0.9923
vt 0.079477 0.459682
vt 0.187310 0.000000
vt 0.187310 0.526208
vt 0.635366 0.530748
vt 0.705624 0.850139
vt 0.635366 0.940117
vt 0.374896 0.359649
vt 0.295203 0.005041
vt 0.374896 0.017294
vt 0.872836 0.308058
vt 0.846187 0.000568
vt 0.861075 -0.000000
vt 0.720523 0.691507
vt 0.709640 0.596365
vt 0.724539 0.596364
vt 0.540197 0.526185
vt 0.540197 1.000000
vt 0.000000 0.359658
vt 0.079477 0.005046
vt 0.374896 0.850151
vt 0.445055 0.530755
vt 0.445055 0.940124
vt 0.295203 0.459677
vt 0.769435 0.819425
vt 0.788917 0.739807
vt 0.804269 0.819427
vt 0.350699 0.634257
vt 0.319077 0.526210
vt 0.353911 0.526208
vt 0.754083 0.739805
vt 0.784633 0.631928
vt 0.800381 0.001610
vt 0.749799 0.341990
vt 0.765647 -0.000000
vt 0.835197 0.442665
vt 0.811371 0.343298
vt 0.846187 0.342180
vt 0.788917 0.524076
vt 0.769435 0.444522
vt 0.804269 0.444523
vt 0.319077 0.741940
vt 0.353911 0.741938
vt 0.754083 0.524074
vt 0.784533 0.343599
vt 0.765647 0.442912
vt 0.723847 0.526186
vt 0.738746 0.526185
vt 0.368809 0.621526
vt 0.358893 0.526208
vt 0.373791 0.526209
vt 0.724539 0.786675
vt 0.723847 0.856915
vt 0.709640 0.786676
vt 0.657455 0.026575
vt 0.562277 0.000000
vt 0.670157 0.005068
vt 0.727713 0.037698
vt 0.749799 0.017421
vt 0.562285 0.495826
vt 0.454427 0.459691
vt 0.467144 0.435951
vt 0.396985 0.037710
vt 0.454427 0.005076
vt 0.467144 0.026582
vt 0.374896 0.359773
vt 0.374896 0.017434
vt 0.562285 0.022011
vt 0.670157 0.459684
vt 0.562277 0.526185
vt 0.657455 0.435944
vt 0.749799 0.359760
vt 0.727713 0.345966
vt 0.396985 0.345977
vt 0.705624 0.691508
vt 0.358893 0.716519
vt 0.353911 0.621525
vt 0.880270 0.398521
vt 0.887704 0.308552
vt 0.895138 0.398879
vt 0.880270 -0.000000
vt 0.872837 0.308193
vt 0.861075 0.398695
vt 0.857949 0.308627
vt 0.835197 0.000000
vt 0.705624 0.541872
vt 0.000000 0.017304
vt 0.374896 0.541883
vt 0.315865 0.634259
vt 0.749799 0.631926
vt 0.800381 0.443783
vt 0.800381 0.444522
vt 0.738746 0.856914
vt 0.373791 0.716520
vt 0.895138 0.000359
vt 0.846187 0.399263
vt 0.800381 0.001118
s 1
f 33/1/1 35/2/1 36/3/1
f 23/4/2 21/5/2 24/6/2
f 37/7/3 40/8/3 38/9/3
f 25/10/4 51/11/4 26/12/4
f 28/13/5 47/14/5 23/15/5
f 28/16/6 24/6/6 27/17/6
f 31/18/7 34/19/7 33/1/7
f 25/20/8 29/21/8 30/22/8
f 35/2/9 39/23/9 36/3/9
f 30/22/10 28/16/10 27/17/10
f 56/24/11 34/25/11 32/26/11
f 36/27/12 58/28/12 33/29/12
f 57/30/13 35/31/13 34/25/13
f 54/32/14 37/33/14 38/34/14
f 33/35/15 55/36/15 31/37/15
f 40/38/16 54/39/16 38/40/16
f 41/41/17 36/27/17 39/42/17
f 35/31/18 53/43/18 40/38/18
f 60/44/19 39/45/19 37/33/19
f 23/15/20 44/46/20 22/47/20
f 27/48/21 42/49/21 30/50/21
f 29/51/22 51/52/22 52/53/22
f 47/54/23 59/55/24 57/56/25
f 44/57/26 57/56/27 56/58/28
f 45/59/29 41/60/30 42/61/31
f 51/62/32 53/63/33 52/64/34
f 51/62/35 60/65/35 54/66/35
f 52/64/36 59/55/37 49/67/38
f 45/59/39 58/68/40 46/69/41
f 48/70/42 55/71/43 58/68/44
f 44/57/45 55/71/45 43/72/45
f 42/61/46 60/65/47 50/73/48
f 28/13/49 52/53/49 49/74/49
f 27/48/50 48/75/50 45/76/50
f 24/77/51 43/78/51 48/79/51
f 22/80/14 43/78/14 21/81/14
f 30/82/52 50/83/52 25/10/52
f 55/36/4 32/84/4 31/37/4
f 33/1/1 34/19/1 35/2/1
f 23/4/2 22/85/2 21/5/2
f 37/7/3 39/23/3 40/8/3
f 25/10/4 50/83/4 51/11/4
f 28/13/5 49/74/5 47/14/5
f 28/16/6 23/4/6 24/6/6
f 31/18/7 32/86/7 34/19/7
f 25/20/8 26/87/8 29/21/8
f 35/2/9 40/8/9 39/23/9
f 30/22/10 29/21/10 28/16/10
f 56/24/11 57/30/11 34/25/11
f 36/27/12 46/88/12 58/28/12
f 57/30/13 59/89/13 35/31/13
f 54/32/14 60/44/14 37/33/14
f 33/35/15 58/90/15 55/36/15
f 40/38/16 53/43/16 54/39/16
f 41/41/17 46/88/17 36/27/17
f 35/31/18 59/89/18 53/43/18
f 60/44/19 41/91/19 39/45/19
f 23/15/20 47/14/20 44/46/20
f 27/48/21 45/76/21 42/49/21
f 29/51/22 26/92/22 51/52/22
f 47/54/23 49/67/53 59/55/24
f 44/57/26 47/54/54 57/56/27
f 45/59/29 46/69/55 41/60/30
f 51/62/32 54/66/56 53/63/33
f 51/62/35 50/73/35 60/65/35
f 52/64/36 53/63/57 59/55/37
f 45/59/39 48/70/58 58/68/40
f 48/70/42 43/72/59 55/71/43
f 44/57/45 56/58/45 55/71/45
f 42/61/46 41/60/60 60/65/47
f 28/13/49 29/51/49 52/53/49
f 27/48/50 24/93/50 48/75/50
f 24/77/51 21/81/51 43/78/51
f 22/80/14 44/94/14 43/78/14
f 30/82/52 42/95/52 50/83/52
f 55/36/4 56/96/4 32/84/4
l 1 2
l 5 13
l 7 14
l 17 18
l 18 20
l 3 4
l 1 3
l 2 4
l 6 15
l 8 16
l 19 20
l 17 19
